<?xml version="1.0"?>
<svg xmlns="http://www.w3.org/2000/svg" xmlns:xlink="http://www.w3.org/1999/xlink" version="1.1" id="Capa_1" x="0px" y="0px" viewBox="0 0 288.674 288.674" style="enable-background:new 0 0 288.674 288.674;" xml:space="preserve" width="512px" height="512px"><g><g>
	<path d="M57.981,144.009c0,47.616,38.739,86.355,86.356,86.355c47.617,0,86.356-38.739,86.356-86.355   c0-3.529-0.238-7.003-0.651-10.422c-6.796,5.364-15.206,8.763-24.376,9.328c0.006,0.365,0.027,0.727,0.027,1.094   c0,33.831-27.524,61.355-61.356,61.355c-33.831,0-61.356-27.524-61.356-61.355s27.524-61.356,61.356-61.356   c5.935,0,11.669,0.863,17.102,2.443c2.89-8.494,8.307-15.828,15.364-21.087c-10.03-4.086-20.985-6.357-32.466-6.357   C96.72,57.653,57.981,96.393,57.981,144.009z" data-original="#000000" class="active-path" data-old_color="#002d5f" fill="#002d5f"/>
	<path d="M25.327,144.009c0-23.637,6.928-45.685,18.858-64.224c-7.777-3.697-14.304-9.615-18.746-16.935   C9.604,85.976,0.327,113.928,0.327,144.009c0,42.904,18.866,81.479,48.731,107.886c2.57-8.3,7.547-15.552,14.108-20.939   C39.899,209.219,25.327,178.286,25.327,144.009z" data-original="#000000" class="active-path" data-old_color="#002d5f" fill="#002d5f"/>
	<path d="M144.336,0c-17.753,0-34.762,3.237-50.478,9.139c5.988,5.967,10.268,13.648,12.024,22.239   C117.952,27.246,130.886,25,144.336,25c65.623,0,119.011,53.387,119.011,119.009s-53.388,119.01-119.011,119.01   c-3.239,0-6.447-0.135-9.621-0.391c0.036,0.733,0.056,1.471,0.056,2.213c0,8.147-2.241,15.777-6.129,22.319   c5.156,0.562,10.391,0.858,15.694,0.858c79.408,0,144.011-64.603,144.011-144.01S223.745,0,144.336,0z" data-original="#000000" class="active-path" data-old_color="#002d5f" fill="#002d5f"/>
	<circle cx="62.938" cy="40.176" r="23.833" data-original="#000000" class="active-path" data-old_color="#002d5f" fill="#002d5f"/>
	<circle cx="202.938" cy="99.176" r="23.833" data-original="#000000" class="active-path" data-old_color="#002d5f" fill="#002d5f"/>
	<path d="M144.336,111.509c-17.949,0-32.5,14.551-32.5,32.5s14.551,32.5,32.5,32.5c17.949,0,32.5-14.551,32.5-32.5   C176.836,125.999,162.201,111.509,144.336,111.509z" data-original="#000000" class="active-path" data-old_color="#002d5f" fill="#002d5f"/>
	<circle cx="90.938" cy="264.841" r="23.833" data-original="#000000" class="active-path" data-old_color="#002d5f" fill="#002d5f"/>
</g></g> </svg>
